HIERARCHY
ROOT SpineBase
{
  OFFSET 0.000000 0.000000 0.000000
  CHANNELS 6 Xposition Yposition Zposition Zrotation Xrotation Yrotation
  JOINT SpineMid
  {
    OFFSET -0.000000 23.404660 0.000000
    CHANNELS 3 Zrotation Xrotation Yrotation
    JOINT SpineShoulder
    {
      OFFSET 0.128479 17.328554 -0.660254
      CHANNELS 3 Zrotation Xrotation Yrotation
      JOINT Neck
      {
        OFFSET 0.068583 5.722008 -0.487535
        CHANNELS 3 Zrotation Xrotation Yrotation
        JOINT Head
        {
          OFFSET 2.582548 10.236822 1.832901
          CHANNELS 3 Zrotation Xrotation Yrotation
          End Site
          {
            OFFSET 0 0 0
          }
        }
      }
      JOINT ShoulderLeft
      {
        OFFSET -4.543749 -4.816375 -13.057602
        CHANNELS 3 Zrotation Xrotation Yrotation
        JOINT ElbowLeft
        {
          OFFSET -2.018454 -19.820552 -4.442618
          CHANNELS 3 Zrotation Xrotation Yrotation
          JOINT WristLeft
          {
            OFFSET 2.653293 -20.212558 1.133276
            CHANNELS 3 Zrotation Xrotation Yrotation
            JOINT HandLeft
            {
              OFFSET 0.660971 -3.398952 1.263156
              CHANNELS 3 Zrotation Xrotation Yrotation
              JOINT HandTipLeft
              {
                OFFSET 1.364784 -6.502901 -0.190911
                CHANNELS 3 Zrotation Xrotation Yrotation
                End Site
                {
                  OFFSET 0 0 0
                }
              }
              JOINT ThumbLeft
              {
                OFFSET 1.866347 1.146774 -1.211364
                CHANNELS 3 Zrotation Xrotation Yrotation
                End Site
                {
                  OFFSET 0 0 0
                }
              }
            }
          }
        }
      }
      JOINT ShoulderRight
      {
        OFFSET 7.466743 -5.196001 11.952568
        CHANNELS 3 Zrotation Xrotation Yrotation
        JOINT ElbowRight
        {
          OFFSET -8.122786 -16.487983 -21.340990
          CHANNELS 3 Zrotation Xrotation Yrotation
          JOINT WristRight
          {
            OFFSET -6.972227 -8.058019 18.022056
            CHANNELS 3 Zrotation Xrotation Yrotation
            JOINT HandRight
            {
              OFFSET -2.360803 -2.706530 6.302280
              CHANNELS 3 Zrotation Xrotation Yrotation
              JOINT HandTipRight
              {
                OFFSET -0.029555 -0.524414 -0.234700
                CHANNELS 3 Zrotation Xrotation Yrotation
                End Site
                {
                  OFFSET 0 0 0
                }
              }
              JOINT ThumbRight
              {
                OFFSET 0.365879 1.439044 1.263873
                CHANNELS 3 Zrotation Xrotation Yrotation
                End Site
                {
                  OFFSET 0 0 0
                }
              }
            }
          }
        }
      }
    }
  }
  JOINT HipLeft
  {
    OFFSET -2.236488 0.865880 -8.004706
    CHANNELS 3 Zrotation Xrotation Yrotation
    JOINT KneeLeft
    {
      OFFSET -0.782474 -31.656571 -4.525638
      CHANNELS 3 Zrotation Xrotation Yrotation
      JOINT AnkleLeft
      {
        OFFSET -9.679097 -30.722997 9.517735
        CHANNELS 3 Zrotation Xrotation Yrotation
        JOINT FootLeft
        {
          OFFSET 7.223351 -3.864846 -5.697333
          CHANNELS 3 Zrotation Xrotation Yrotation
          End Site
          {
            OFFSET 0 0 0
          }
        }
      }
    }
  }
  JOINT HipRight
  {
    OFFSET 2.831181 -0.366003 2.835851
    CHANNELS 3 Zrotation Xrotation Yrotation
    JOINT KneeRight
    {
      OFFSET -13.781215 -40.612780 -1.510485
      CHANNELS 3 Zrotation Xrotation Yrotation
      JOINT AnkleRight
      {
        OFFSET -8.377679 -35.414794 3.675180
        CHANNELS 3 Zrotation Xrotation Yrotation
        JOINT FootRight
        {
          OFFSET 0.422029 -4.267280 7.031946
          CHANNELS 3 Zrotation Xrotation Yrotation
          End Site
          {
            OFFSET 0 0 0
          }
        }
      }
    }
  }
}
MOTION
Frames: 14
Frame Time: 0.033333
-42.631317 84.900396 351.438233 0.000000 0.000000 -64.945178 -0.000000 -0.000000 64.945178 -0.000000 0.000000 0.000000 -0.000000 0.000000 0.000000 0.000000 0.000000 0.000000 -0.000000 0.000000 0.000000 -0.000000 0.000000 0.000000 -0.000000 0.000000 0.000000 -0.000000 0.000000 0.000000 0.000000 0.000000 0.000000 0.000000 0.000000 0.000000 -0.000000 0.000000 0.000000 -0.000000 0.000000 0.000000 -0.000000 0.000000 0.000000 -0.000000 0.000000 0.000000 0.000000 0.000000 0.000000 0.000000 0.000000 0.000000 -0.000000 -0.000000 64.945178 -0.000000 0.000000 0.000000 -0.000000 0.000000 0.000000 0.000000 0.000000 0.000000 -0.000000 -0.000000 64.945178 -0.000000 0.000000 0.000000 -0.000000 0.000000 0.000000 0.000000 0.000000 0.000000
-42.543520 84.930696 351.568079 0.076528 -0.056312 -64.891846 -0.083464 -0.045402 64.891851 -0.000000 0.000000 0.000000 -0.000000 0.000000 0.000000 0.000000 0.000000 0.000000 -0.000000 0.000000 0.000000 -0.000000 0.000000 0.000000 -0.261816 3.079931 0.514179 0.234518 -3.082127 -0.500831 0.000000 0.000000 0.000000 0.000000 0.000000 0.000000 -0.000000 0.000000 0.000000 -0.000000 0.000000 0.000000 -0.000000 0.000000 0.000000 -0.000000 0.000000 0.000000 0.000000 0.000000 0.000000 0.000000 0.000000 0.000000 -0.083464 -0.045402 64.891851 -0.000000 0.000000 0.000000 -0.000000 0.000000 0.000000 0.000000 0.000000 0.000000 -0.083464 -0.045402 64.891851 -0.000000 0.000000 0.000000 1.921973 6.430152 4.063994 0.000000 0.000000 0.000000
-42.472942 84.951920 351.674617 0.136015 -0.109873 -64.818168 -0.157304 -0.076338 64.818193 -0.000000 0.000000 0.000000 -0.000000 0.000000 0.000000 0.000000 0.000000 0.000000 -0.000000 0.000000 0.000000 -0.000000 0.000000 0.000000 -0.482264 5.146942 0.859050 0.406792 -5.153438 -0.819068 0.000000 0.000000 0.000000 0.000000 0.000000 0.000000 -0.000000 0.000000 0.000000 -0.000000 0.000000 0.000000 -0.000000 0.000000 0.000000 -0.000000 0.000000 0.000000 0.000000 0.000000 0.000000 0.000000 0.000000 0.000000 -0.157304 -0.076338 64.818193 -0.000000 0.000000 0.000000 -0.000000 0.000000 0.000000 0.000000 0.000000 0.000000 -0.157304 -0.076338 64.818193 -0.000000 0.000000 0.000000 3.527352 13.182184 8.250459 0.000000 0.000000 0.000000
-42.419584 84.964067 351.757848 0.178436 -0.160665 -64.724098 -0.221471 -0.092753 64.724169 -0.000000 0.000000 0.000000 -0.000000 0.000000 0.000000 0.000000 0.000000 0.000000 0.286155 0.924226 -0.160320 -0.283605 -0.925012 0.155723 -0.665185 6.476540 1.075006 0.936572 -7.298711 -1.140124 0.000000 0.000000 0.000000 0.000000 0.000000 0.000000 -0.000000 0.000000 0.000000 -0.000000 0.000000 0.000000 -0.000000 0.000000 0.000000 -0.000000 0.000000 0.000000 0.000000 0.000000 0.000000 0.000000 0.000000 0.000000 -0.221471 -0.092753 64.724169 -0.000000 0.000000 0.000000 -0.000000 0.000000 0.000000 0.000000 0.000000 0.000000 -0.221471 -0.092753 64.724169 0.349996 -0.913965 0.255296 4.497774 20.734738 12.102305 0.000000 0.000000 0.000000
-42.383446 84.967138 351.817771 0.203777 -0.208669 -64.609436 -0.275889 -0.094619 64.609579 -0.000000 0.000000 0.000000 -0.000000 0.000000 0.000000 0.000000 0.000000 0.000000 0.319890 1.518769 -0.229998 -0.313902 -1.520018 0.221594 -0.816314 7.232690 1.186041 1.134039 -8.213006 -1.244418 0.000000 0.000000 0.000000 0.000000 0.000000 0.000000 -0.000000 0.000000 0.000000 -0.000000 0.000000 0.000000 -0.000000 0.000000 0.000000 -0.000000 0.000000 0.000000 0.000000 0.000000 0.000000 0.000000 0.000000 0.000000 -0.846193 -0.720251 64.715130 0.809267 -0.248458 -0.107851 -0.000000 0.000000 0.000000 0.000000 0.000000 0.000000 -0.275889 -0.094619 64.609579 0.493469 -1.292654 0.362522 5.244494 27.237624 16.015552 0.000000 0.000000 0.000000
-42.364528 84.961132 351.854388 0.212037 -0.253871 -64.473822 -0.320462 -0.081941 64.474063 -0.000000 0.000000 0.000000 -0.000000 0.000000 0.000000 0.000000 0.000000 0.000000 0.323335 2.256103 -0.307354 -0.311472 -2.257770 0.294850 -0.941425 7.509962 1.205712 1.294253 -8.581120 -1.255606 0.000000 0.000000 0.000000 0.000000 0.000000 0.000000 -0.000000 0.000000 0.000000 -0.000000 0.000000 0.000000 -0.000000 0.000000 0.000000 -0.000000 0.000000 0.000000 0.000000 0.000000 0.000000 0.000000 0.000000 0.000000 -1.058180 -0.775341 64.594296 0.942822 -0.368908 -0.122717 -0.000000 0.000000 0.000000 0.000000 0.000000 0.000000 -0.320462 -0.081941 64.474063 0.651321 -1.709871 0.481725 5.653925 32.913222 19.686290 0.000000 0.000000 0.000000
-42.378010 84.964572 351.850217 0.182733 -0.267154 -64.191525 -0.320062 -0.048198 64.191816 -0.000000 0.000000 0.000000 -0.000000 0.000000 0.000000 0.000000 0.000000 0.000000 0.355403 3.860210 -0.481410 -0.323717 -3.862992 0.458516 -1.211624 5.737828 0.742501 1.176020 -7.602491 -1.010557 0.000000 0.000000 0.000000 0.000000 0.000000 0.000000 -0.000000 0.000000 0.000000 -0.000000 0.000000 0.000000 -0.000000 0.000000 0.000000 0.380181 1.177455 -0.239362 0.000000 0.000000 0.000000 0.000000 0.000000 0.000000 -1.370964 -0.906053 64.344579 1.228244 -0.575919 -0.155341 -0.000000 0.000000 0.000000 0.000000 0.000000 0.000000 -0.320062 -0.048198 64.191816 1.054418 -2.683597 0.768862 6.294648 41.320039 27.046023 0.000000 0.000000 0.000000
-42.401757 84.910363 351.817867 0.144659 -0.380637 -63.862279 -0.405438 0.037814 63.862893 -0.000000 0.000000 0.000000 -0.000000 0.000000 0.000000 0.000000 0.000000 0.000000 0.328866 5.334428 -0.626302 -0.742819 -6.395891 0.384996 -0.413928 8.502536 1.394988 -0.025362 -8.976705 -1.519098 0.000000 0.000000 0.000000 0.000000 0.000000 0.000000 -0.000000 0.000000 0.000000 -0.000000 0.000000 0.000000 -0.000000 0.000000 0.000000 1.026277 2.736640 -0.631658 0.000000 0.000000 0.000000 0.000000 0.000000 0.000000 -1.942902 -0.752375 64.025779 1.383745 -1.036110 -0.159962 -0.000000 0.000000 0.000000 0.000000 0.000000 0.000000 -0.405438 0.037814 63.862893 1.354144 -3.449668 0.997255 6.120744 46.772343 31.979520 0.000000 0.000000 0.000000
-42.427677 84.880129 351.782880 0.123019 -0.432740 -63.936572 -0.442785 0.079621 63.937345 -0.000000 0.000000 0.000000 -0.000000 0.000000 0.000000 0.000000 0.000000 0.000000 0.328957 5.899805 -0.684319 -0.890198 -7.199892 0.376818 -0.460652 9.204630 1.479194 1.194876 -9.621795 -1.435073 0.000000 0.000000 0.000000 0.000000 0.000000 0.000000 -0.000000 0.000000 0.000000 -0.000000 0.000000 0.000000 -0.000000 0.000000 0.000000 1.267403 3.109689 -0.768088 0.000000 0.000000 0.000000 0.000000 0.000000 0.000000 -2.041663 -0.617961 64.091662 1.326128 -1.133384 -0.148712 -0.140382 0.314786 0.794252 0.000000 0.000000 0.000000 -0.442785 0.079621 63.937345 1.450414 -3.634832 1.056344 8.190570 42.539020 31.908684 0.000000 0.000000 0.000000
-42.423260 84.886769 351.734174 0.157702 -0.442790 -63.776714 -0.466901 0.054183 63.777544 -0.000000 0.000000 0.000000 -0.000000 0.000000 0.000000 0.000000 0.000000 0.000000 0.349408 6.062091 -0.706561 -0.967969 -7.096997 0.420570 -0.163228 8.838073 1.488599 1.836679 -9.112956 -1.327338 0.000000 0.000000 0.000000 0.000000 0.000000 0.000000 -0.000000 0.000000 0.000000 -0.000000 0.000000 0.000000 -0.000000 0.000000 0.000000 0.905599 2.318342 -0.549572 0.000000 0.000000 0.000000 0.000000 0.000000 0.000000 -2.034527 -0.452984 63.906716 1.145047 -1.184769 -0.122788 -0.147677 0.339335 0.850671 0.000000 0.000000 0.000000 -0.466901 0.054183 63.777544 1.249463 -3.381335 0.966176 9.284148 37.815667 30.010729 0.000000 0.000000 0.000000
-42.432877 84.843801 351.698436 0.164435 -0.436878 -63.856314 -0.464636 0.044885 63.857123 -0.000000 0.000000 0.000000 -0.000000 0.000000 0.000000 0.000000 0.000000 0.000000 -0.303999 6.364450 -0.556668 0.304769 -7.469696 0.436880 -1.755351 7.769432 0.936108 4.314232 -6.447651 -0.270327 0.000000 0.000000 0.000000 0.000000 0.000000 0.000000 -0.000000 0.000000 0.000000 -0.000000 0.000000 0.000000 -0.000000 0.000000 0.000000 0.913269 2.316430 -0.553014 0.000000 0.000000 0.000000 0.000000 0.000000 0.000000 -1.722701 -0.208680 63.941838 0.780494 -1.018780 -0.079574 -0.132770 0.315675 0.784582 0.000000 0.000000 0.000000 -0.464636 0.044885 63.857123 0.969447 -2.984474 0.831427 8.605138 22.994909 19.884782 0.000000 0.000000 0.000000
-42.470613 84.765037 351.637257 0.121626 -0.395600 -64.339182 -0.409253 0.061679 64.339822 -0.000000 0.000000 0.000000 -0.741251 -0.781798 0.324766 0.000000 0.000000 0.000000 -0.724053 6.169066 -0.422160 1.205102 -7.457621 0.407024 -2.315421 7.642240 0.855220 4.943263 -6.479084 -0.215091 0.000000 0.000000 0.000000 0.000000 0.000000 0.000000 -0.000000 0.000000 0.000000 -0.000000 0.000000 0.000000 -0.000000 0.000000 0.000000 0.921274 2.316345 -0.556723 0.000000 0.000000 0.000000 0.000000 0.000000 0.000000 -1.201356 -0.102325 64.393770 0.490248 -0.643422 -0.051476 -0.000000 0.000000 0.000000 0.000000 0.000000 0.000000 -0.409253 0.061679 64.339822 0.522166 -2.283412 0.604223 8.836214 26.714438 22.076425 0.000000 0.000000 0.000000
-42.552333 84.641634 351.558081 -0.007701 -0.290674 -65.089589 -0.260388 0.129416 65.089863 -0.000000 0.000000 0.000000 -0.759613 -0.722944 0.313434 0.000000 0.000000 0.000000 -0.889151 4.800620 -0.250045 1.514345 -5.651427 0.300883 -2.618885 5.525651 0.361266 4.780109 -3.479634 0.283598 0.000000 0.000000 0.000000 0.000000 0.000000 0.000000 -0.000000 0.000000 0.000000 -0.000000 0.000000 0.000000 -0.000000 0.000000 0.000000 0.924041 2.316178 -0.557997 0.000000 0.000000 0.000000 0.000000 0.000000 0.000000 -0.260388 0.129416 65.089863 -0.000000 0.000000 0.000000 -0.000000 0.000000 0.000000 0.000000 0.000000 0.000000 -0.260388 0.129416 65.089863 0.163673 -1.255575 0.315555 8.336847 18.629852 18.159120 0.000000 0.000000 0.000000
-42.612015 84.537023 351.485095 -0.084541 -0.199131 -65.689944 -0.146671 0.159022 65.690001 -0.000000 0.000000 0.000000 -0.835589 -0.760943 0.335820 0.000000 0.000000 0.000000 -0.772156 3.938846 -0.199970 0.787746 -3.935763 0.253589 -2.682577 5.295079 0.160885 5.292681 -4.420265 0.413529 0.000000 0.000000 0.000000 0.000000 0.000000 0.000000 -0.000000 0.000000 0.000000 -0.000000 0.000000 0.000000 -0.000000 0.000000 0.000000 0.930096 2.315484 -0.560764 0.000000 0.000000 0.000000 0.000000 0.000000 0.000000 -0.146671 0.159022 65.690001 -0.000000 0.000000 0.000000 -0.000000 0.000000 0.000000 0.000000 0.000000 0.000000 -0.146671 0.159022 65.690001 0.351456 -1.744557 0.454155 8.454630 26.077211 21.374957 0.000000 0.000000 0.000000
